<?xml version="1.0" encoding="UTF-8" standalone="no"?>
<!DOCTYPE svg PUBLIC "-//W3C//DTD SVG 1.1//EN" "http://www.w3.org/Graphics/SVG/1.1/DTD/svg11.dtd">
<!-- Created with Vectornator (http://vectornator.io/) -->
<svg height="100%" stroke-miterlimit="10" style="fill-rule:nonzero;clip-rule:evenodd;stroke-linecap:round;stroke-linejoin:round;" version="1.1" viewBox="0 0 3370.82 2384.24" width="100%" xml:space="preserve" xmlns="http://www.w3.org/2000/svg" xmlns:vectornator="http://vectornator.io" xmlns:xlink="http://www.w3.org/1999/xlink">
<defs>
<filter color-interpolation-filters="sRGB" filterUnits="userSpaceOnUse" height="2191.55" id="Filter" width="3215.83" x="103.121" y="85.7895">
<feGaussianBlur in="SourceGraphic" result="Blur" stdDeviation="2.35997"/>
</filter>
<path d="M156.713-1.13687e-13C70.1557-3.362e-05-2.27374e-13 73.9596-2.27374e-13 165.146L-2.27374e-13 2219.14C3.19132e-05 2310.33 70.1558 2384.23 156.713 2384.23L3214.1 2384.23C3300.66 2384.24 3370.82 2310.33 3370.82 2219.14L3370.82 165.146C3370.82 73.9596 3300.66 5.50754e-07 3214.1-1.13687e-13L156.713-1.13687e-13ZM312.445 147.072L3068.66 147.072C3162.02 147.072 3237.68 228.027 3237.68 327.865L3237.68 2062.46C3237.68 2162.3 3162.02 2243.26 3068.66 2243.26L312.445 2243.26C219.093 2243.26 143.38 2162.3 143.379 2062.46L143.379 327.865C143.379 228.027 219.093 147.072 312.445 147.072Z" id="Fill"/>
<filter color-interpolation-filters="sRGB" filterUnits="userSpaceOnUse" height="2434.93" id="Filter_2" width="3421.51" x="-25.6927" y="-23.3758">
<feDropShadow dx="-0.347296" dy="1.96962" flood-color="#000000" flood-opacity="0.6" in="SourceGraphic" result="Shadow" stdDeviation="2"/>
<feGaussianBlur in="Shadow" result="Blur" stdDeviation="1.38679"/>
</filter>
</defs>
<clipPath id="ArtboardFrame">
<rect height="2384.24" width="3370.82" x="0" y="0"/>
</clipPath>
<g clip-path="url(#ArtboardFrame)" id="Layer-1" vectornator:layerName="Layer 1">
<path d="M109.021 256.797C109.021 165.61 179.189 91.6894 265.745 91.6894L3156.32 91.6894C3242.88 91.6894 3313.05 165.61 3313.05 256.797L3313.05 2106.33C3313.05 2197.52 3242.88 2271.44 3156.32 2271.44L265.745 2271.44C179.189 2271.44 109.021 2197.52 109.021 2106.33L109.021 256.797Z" fill="#0d0d0d" fill-rule="nonzero" filter="url(#Filter)" opacity="0.660819" stroke="none" vectornator:blur="4.71994" vectornator:layerName="Rectangle 1"/>
<g filter="url(#Filter_2)" vectornator:blur="2.77358" vectornator:layerName="Curve 1" vectornator:shadowAngle="1.74533" vectornator:shadowColor="#000000" vectornator:shadowOffset="2" vectornator:shadowOpacity="0.6" vectornator:shadowRadius="4">
<use fill="#474747" fill-rule="nonzero" stroke="none" xlink:href="#Fill"/>
<mask height="2417.99" id="StrokeMask" maskUnits="userSpaceOnUse" width="3404.57" x="-16.8785" y="-16.8785">
<rect fill="#ffffff" height="2417.99" stroke="none" width="3404.57" x="-16.8785" y="-16.8785"/>
<use fill="#000000" fill-rule="evenodd" stroke="none" xlink:href="#Fill"/>
</mask>
<use fill="none" mask="url(#StrokeMask)" stroke="#6f6a7b" stroke-linecap="butt" stroke-linejoin="round" stroke-width="33.7569" xlink:href="#Fill"/>
</g>
</g>
</svg>
